<svg xmlns="http://www.w3.org/2000/svg"><defs><symbol id="arrow_up_big" viewBox="0 0 16 16"><path fill-rule="evenodd" d="M7 4.414V14a1 1 0 002 0V4.414l2.611 2.611a.999.999 0 101.414-1.414L8.719 1.304l-.012-.011a.997.997 0 00-1.414 0l-.012.011-4.306 4.307a.999.999 0 101.414 1.414L7 4.414z"/></symbol><symbol id="news" viewBox="0 0 16 16"><path fill-rule="evenodd" d="M5 13.5a1.5 1.5 0 01-3 0v-2.414A2.999 2.999 0 01.501 8.489V7.475c0-1.655 1.344-3 3-3h2.221c1.317-.014 2.389-.198 3.905-2.108C10.291 1.508 11.112 1 12 1c2.208 0 4 3.137 4 7s-1.792 7-4 7c-.891 0-1.715-.511-2.381-1.376-1.778-2.237-2.946-2.097-4.619-2.1V13.5zm5.186-3.529c.318 1.597 1.011 2.706 1.814 2.706 1.104 0 2-2.096 2-4.677 0-2.581-.896-4.677-2-4.677-.796 0-1.484 1.09-1.806 2.665a2.002 2.002 0 01-.008 3.983zM4 7a1 1 0 110 2 1 1 0 010-2z"/></symbol><symbol id="close_big" viewBox="0 0 16 16"><path fill-rule="evenodd" d="M7.983 6.455l4.34-4.34a1.105 1.105 0 011.562 1.562l-4.34 4.34 4.34 4.34a1.08 1.08 0 11-1.528 1.528l-4.34-4.34-4.34 4.34a1.105 1.105 0 01-1.562-1.562l4.34-4.34-4.34-4.34a1.08 1.08 0 111.528-1.528l4.34 4.34z"/></symbol><symbol id="close" viewBox="0 0 16 16"><path fill-rule="evenodd" d="M6.586 8L4.293 5.707a.999.999 0 111.414-1.414L8 6.586l2.293-2.293a1 1 0 011.414 1.414L9.414 8l2.293 2.293a1 1 0 01-1.414 1.414L8 9.414l-2.293 2.293a1 1 0 01-1.414-1.414L6.586 8z"/></symbol><symbol id="breaking" viewBox="0 0 16 16"><path fill-rule="evenodd" clip-rule="evenodd" d="M10 0L9 6h5L6 16l1-6H2l8-10z"/></symbol><symbol id="more" viewBox="0 0 16 16"><path fill-rule="evenodd" d="M4.635 8a1.817 1.817 0 01-3.632 0 1.817 1.817 0 013.632 0zm5.191 0a1.826 1.826 0 01-3.65 0 1.826 1.826 0 013.65 0zm5.171 0a1.81 1.81 0 11-3.617-.001A1.81 1.81 0 0114.997 8z"/></symbol><symbol id="vk-raw-logo" viewBox="0 0 16 16"><path d="M8.715 12.984C3.248 12.984.13 9.236 0 3h2.738c.09 4.577 2.109 6.516 3.708 6.916V3h2.578v3.948c1.58-.17 3.238-1.97 3.798-3.948H15.4c-.43 2.438-2.228 4.237-3.508 4.977 1.28.6 3.329 2.168 4.108 5.007h-2.838c-.61-1.9-2.129-3.368-4.138-3.568v3.568h-.31z" fill="#fff"/></symbol><symbol id="cloud_mb" viewBox="0 0 14 12"><g clip-path="url(#clip0_9220_2262)"><path fill-rule="evenodd" clip-rule="evenodd" d="M12.524 7.952a3.05 3.05 0 00-3.048-3.047H3.381A3.05 3.05 0 00.333 7.952 3.049 3.049 0 003.381 11h6.095a3.05 3.05 0 003.048-3.048z" fill="#F3C03A"/><path fill-rule="evenodd" clip-rule="evenodd" d="M3.381 4.905a3.05 3.05 0 013.048 3.047A3.049 3.049 0 013.38 11 3.049 3.049 0 01.333 7.952a3.05 3.05 0 013.048-3.047z" fill="#F3C03A"/><path fill-rule="evenodd" clip-rule="evenodd" d="M6.494.167a4.127 4.127 0 014.125 4.125 4.127 4.127 0 01-4.125 4.126 4.127 4.127 0 01-4.126-4.126A4.127 4.127 0 016.494.167z" fill="#F3A23A"/><mask id="mask0_9220_2262" style="mask-type:alpha" maskUnits="userSpaceOnUse" x="2" y="0" width="9" height="9"><path d="M6.494.167a4.127 4.127 0 014.125 4.125 4.127 4.127 0 01-4.125 4.126 4.127 4.127 0 01-4.126-4.126A4.127 4.127 0 016.494.167z" fill="#fff"/></mask><g mask="url(#mask0_9220_2262)"><path fill-rule="evenodd" clip-rule="evenodd" d="M3.381 4.905a3.05 3.05 0 013.048 3.047A3.049 3.049 0 013.38 11 3.049 3.049 0 01.333 7.952a3.05 3.05 0 013.048-3.047z" fill="#FFCF38"/></g><path fill-rule="evenodd" clip-rule="evenodd" d="M9.476 2.62a4.192 4.192 0 014.19 4.19A4.192 4.192 0 019.477 11a4.192 4.192 0 01-4.19-4.19 4.192 4.192 0 014.19-4.19z" fill="#F3823A"/><mask id="mask1_9220_2262" style="mask-type:alpha" maskUnits="userSpaceOnUse" x="5" y="2" width="9" height="9"><path d="M9.476 2.62a4.192 4.192 0 014.19 4.19A4.192 4.192 0 019.477 11a4.192 4.192 0 01-4.19-4.19 4.192 4.192 0 014.19-4.19z" fill="#fff"/></mask><g mask="url(#mask1_9220_2262)"><path fill-rule="evenodd" clip-rule="evenodd" d="M6.494.167a4.127 4.127 0 014.125 4.125 4.127 4.127 0 01-4.125 4.126 4.127 4.127 0 01-4.126-4.126A4.127 4.127 0 016.494.167z" fill="#F26C32"/></g></g><defs><clipPath id="clip0_9220_2262"><path fill="#fff" transform="translate(.333 .167)" d="M0 0h13.333v10.833H0z"/></clipPath></defs></symbol><symbol id="tasks_mb" viewBox="0 0 16 16"><path fill-rule="evenodd" clip-rule="evenodd" d="M13 15H3a2 2 0 01-2-2V3c0-1.1.9-2 2-2a1 1 0 012 0h6a1 1 0 012 0 2 2 0 012 2v10a2 2 0 01-2 2zm-1.37-9.46c-.4-.4-1-.4-1.4 0L7.4 8.37l-1.3-1.3c-.4-.4-1-.4-1.4 0-.4.4-.4 1 0 1.4l2 2c.2.2.4.3.7.3.3 0 .5-.1.7-.3l3.53-3.53c.4-.4.4-1 0-1.4z" fill="#fff"/></symbol><symbol id="video_mb" viewBox="0 0 18 18"><g fill="none" fill-rule="evenodd"><g fill="#FFF"><path d="M11.766 6.433c0-1.598-1.316-2.895-2.937-2.895H3.936C2.315 3.538.999 4.835.999 6.433v5.789c0 1.597 1.316 2.894 2.937 2.894h4.893c1.621 0 2.937-1.297 2.937-2.894v-5.79z"/><circle cx=".979" cy=".965" transform="translate(2.958 11.256)" r="1"/><path d="M16.662 9.326a.972.972 0 00-.978-.964h-4.895a.972.972 0 00-.978.964c0 .533.438.965.978.965h4.895c.54 0 .978-.432.978-.965z"/><path d="M15.682 9.326V5.467l-.631-.737-5.02 3.986.757.61zm0 0v3.86l-.647.723-5.004-3.972.757-.61z"/><path d="M15.674 14.217a.972.972 0 00.965-.979v-7.83a.972.972 0 00-.965-.979.972.972 0 00-.965.979v7.83c0 .54.433.98.965.98z"/><circle cx=".979" cy=".965" transform="translate(2.958 11.256)" r="1"/><path d="M16.662 9.326a.972.972 0 00-.978-.964h-4.895a.972.972 0 00-.978.964c0 .533.438.965.978.965h4.895c.54 0 .978-.432.978-.965z"/></g><circle cx=".893" cy="1.223" r="1" transform="translate(3 11)" fill="#FF9300"/></g></symbol><symbol id="payment_mb" viewBox="0 0 18 18"><circle cx="9" cy="9" r="9" fill="#FF9E00"/><path d="M6 4a1 1 0 011-1h1v11a1 1 0 11-2 0V4z" fill="#fff"/><path d="M7 4h3.5a2.5 2.5 0 010 5H5" stroke="#fff" stroke-width="2" stroke-linecap="round"/><path d="M4 12a1 1 0 011-1h7a1 1 0 110 2H5a1 1 0 01-1-1z" fill="#fff"/></symbol><symbol id="fold" viewBox="-431 265 32 32"><path d="M-415 265c-8.9 0-16 7.1-16 16s7.1 16 16 16 16-7.1 16-16-7.1-16-16-16zm0 30c-7.8 0-14-6.2-14-14s6.2-14 14-14 14 6.2 14 14-6.2 14-14 14zm0-20l-1.5 1.5-7.5 7.5 1.5 1.5 7.5-7.5 7.5 7.5 1.5-1.5-7.5-7.5-1.5-1.5z"/></symbol><symbol id="calendar_alt" viewBox="0 0 16 16"><path d="M12 15H2a2 2 0 01-2-2V3a2 2 0 011.999-2 1 1 0 012 0h6a1 1 0 012 0H12a2 2 0 012 2v10a2 2 0 01-2 2zM2.999 3a1 1 0 110 2 1 1 0 010-2zm8 0a1 1 0 110 2 1 1 0 010-2z" fill-rule="evenodd"/></symbol><symbol id="arrow_previous" viewBox="0 0 16 16"><path fill-rule="evenodd" d="M3.304 7.281l3.04-3.039a1 1 0 011.414 1.414L6.414 7h5.637a1 1 0 010 2H6.414l1.344 1.344a1 1 0 01-1.414 1.414l-3.04-3.039-.011-.012a.997.997 0 010-1.414l.011-.012z"/></symbol><symbol id="drop_down" viewBox="0 0 16 16"><path fill-rule="evenodd" d="M4.228 6.635A1 1 0 015 5h6a1 1 0 01.772 1.635l-2.964 3.954a.999.999 0 01-1.616 0L4.228 6.635z"/></symbol><symbol id="arrow_next" viewBox="0 0 16 16"><path fill-rule="evenodd" d="M12.696 7.256L9.657 4.217a1 1 0 00-1.415 1.414l1.344 1.344H3.949a1.001 1.001 0 000 2h5.637l-1.344 1.343a1.002 1.002 0 000 1.415c.391.39 1.024.39 1.415 0l3.039-3.04A.993.993 0 0013 7.975a.997.997 0 00-.293-.708l-.011-.011z"/></symbol><symbol id="drop_up" viewBox="0 0 16 16"><path fill-rule="evenodd" d="M7.192 5.411a.999.999 0 011.616 0l2.964 3.954A1 1 0 0111 11H5a1 1 0 01-.772-1.635l2.964-3.954z"/></symbol><symbol id="drop_down_small" viewBox="0 0 16 16"><path fill-rule="evenodd" d="M5.171 7.226A.75.75 0 015.75 6h4.5a.75.75 0 01.579 1.226l-2.223 2.966a.75.75 0 01-1.212 0L5.171 7.226z"/></symbol><symbol id="drop_up_small" viewBox="0 0 16 16"><path fill-rule="evenodd" d="M5.171 8.774A.75.75 0 005.75 10h4.5a.75.75 0 00.579-1.226L8.606 5.808a.75.75 0 00-1.212 0L5.171 8.774z"/></symbol><symbol id="sign_out" viewBox="0 0 16 16"><path fill-rule="evenodd" d="M16 11.489c0 1.768-1.599 2.568-1.599 2.568l-2.684 1.791-.001.001a1.164 1.164 0 01-1.718-1.027l.001-.155V14H7a2 2 0 01-2-2v-2a1 1 0 012 0v1.403c0 .329.267.597.597.597h2.402L10 9V5.692c0-1.796 1.503-2.463 1.503-2.463l2.228-1.131A.594.594 0 0013.403 2H7.597A.597.597 0 007 2.597V4a1 1 0 01-2 0V2a2 2 0 012-2h7a2 2 0 012 2v9.489zM.307 6.278l1.986-1.985a1 1 0 011.414 1.414L3.414 6H7a1 1 0 010 2H3.414l.293.293a1 1 0 01-1.414 1.414L.307 7.722l-.014-.015a.983.983 0 01-.276-.523v-.001l-.001-.001v-.005l-.001-.003v-.003l-.001-.003v-.001a.82.82 0 01-.012-.101v-.011l-.001-.001v-.022H0v-.063l.001-.001v-.01a.985.985 0 01.292-.665l.014-.015z"/></symbol><symbol id="compose" viewBox="0 0 16 16"><path fill-rule="evenodd" d="M1.975 10.649l6.591-6.591 3.376 3.376-4.903 4.903-1.688 1.688c-.001.001-.378.35-1.108.487l-2.522.477a.685.685 0 01-.56-.15.685.685 0 01-.15-.56l.477-2.522c.137-.729.485-1.105.487-1.108zm1.01.916a.387.387 0 01.56-.014l.904.904a.386.386 0 010 .546l-.059.059s-.162.15-.476.209l-1.083.205a.295.295 0 01-.241-.064.295.295 0 01-.064-.241l.205-1.083c.059-.314.209-.476.209-.476l.045-.045zm9.761-10.272a.999.999 0 00-1.414 0L10 2.624 13.376 6l1.331-1.332a.999.999 0 000-1.414l-1.961-1.961z"/></symbol><symbol id="cloud" viewBox="0 0 16 16"><path fill-rule="evenodd" d="M5.555 4.598a3.735 3.735 0 013.512-2.465 3.735 3.735 0 013.69 4.299A3.737 3.737 0 0116 10.133a3.735 3.735 0 01-3.733 3.734 3.72 3.72 0 01-2.508-.969 3.187 3.187 0 01-2.292.969 3.19 3.19 0 01-2.134-.816 3.188 3.188 0 01-2.133.816 3.202 3.202 0 01-1.451-6.053 2.668 2.668 0 013.806-3.216z"/></symbol><symbol id="camera" viewBox="0 0 16 16"><path fill-rule="evenodd" d="M8 14H3c-1.656 0-3-1.344-3-3V5c0-1.656 1.344-3 3-3h5c1.656 0 3 1.344 3 3v.938l3.355-2.702A1 1 0 0116 4v8a1 1 0 01-1.661.75L11 10.061V11c0 1.656-1.344 3-3 3zm-5-4a1 1 0 110 2 1 1 0 010-2z"/></symbol><symbol id="mail" viewBox="0 0 16 16"><path fill-rule="evenodd" d="M13.2 2c.993 0 1.8.807 1.8 1.8v8.4c0 .993-.807 1.8-1.8 1.8H2.8c-.993 0-1.8-.807-1.8-1.8V3.8C1 2.807 1.807 2 2.8 2h10.4zM5.049 8.094L3.036 6.081a.756.756 0 111.07-1.07l3.886 3.886 3.891-3.891a.757.757 0 111.071 1.07l-2.01 2.009 1.87 1.87a.723.723 0 01-1.022 1.022l-1.87-1.87-1.31 1.31a.745.745 0 01-.62.313.756.756 0 01-.62-.313l-1.301-1.3-1.859 1.859A.723.723 0 013.19 9.953l1.859-1.859z"/></symbol><symbol id="mailru" viewBox="0 0 16 16"><path fill-rule="evenodd" d="M8 0c4.411 0 8 3.589 8 8a7.1 7.1 0 01-.17 1.647c0 .003-.059.236-.09.337-.197.629-.548 1.149-1.03 1.515a2.666 2.666 0 01-1.613.544 2.672 2.672 0 01-.214-.008 2.575 2.575 0 01-2.003-1.214A4.021 4.021 0 018 12.034 4.039 4.039 0 013.966 8 4.039 4.039 0 018 3.966 4.039 4.039 0 0112.034 8V9.31c.004.783.532 1.1.977 1.136.45.035 1.038-.226 1.243-1.067A6.412 6.412 0 008 1.596a6.412 6.412 0 00-6.405 6.404A6.412 6.412 0 008 14.405a6.38 6.38 0 003.458-1.015l1.048 1.219A7.97 7.97 0 018 16c-4.411 0-8-3.589-8-8s3.589-8 8-8zM5.56 8A2.442 2.442 0 008 10.44 2.442 2.442 0 0010.439 8 2.442 2.442 0 008 5.561a2.442 2.442 0 00-2.44 2.44z"/></symbol><symbol id="fb" viewBox="0 0 16 16"><path fill-rule="evenodd" d="M8.614 8.147h2.097s.217-.663.289-1.62v-.148.074-.368H8.542v-2.36c0-.22.362-.59.65-.59h1.519V1H9.41C6.663 1 6.446 3.505 6.446 3.874v2.284H5v2.21h1.446V15h2.168V8.147z"/></symbol><symbol id="ok" viewBox="0 0 16 16"><path fill-rule="evenodd" d="M8 8.262c1.999 0 3.584-1.606 3.584-3.631C11.584 2.676 9.999 1 8 1S4.416 2.606 4.416 4.63c0 2.026 1.585 3.632 3.584 3.632zm0-5.097c.827 0 1.516.698 1.516 1.466 0 .838-.689 1.466-1.516 1.466-.827 0-1.516-.698-1.516-1.466S7.173 3.165 8 3.165zm1.447 8.03l2.137 2.024a1.022 1.022 0 010 1.467 1.072 1.072 0 01-1.516 0l-2-1.955-1.998 1.955c-.207.21-.482.28-.758.28s-.551-.07-.758-.28a1.022 1.022 0 010-1.467l1.999-2.024c-.69-.14-1.448-.42-2.068-.838-.482-.35-.62-.978-.344-1.467.275-.489.964-.628 1.447-.349 1.447.908 3.377.908 4.824 0 .483-.28 1.172-.14 1.447.35.276.488.138 1.186-.344 1.466-.62.419-1.31.698-2.068.838z"/></symbol><symbol id="moimir" viewBox="0 0 16 16"><path fill-rule="evenodd" d="M5.306 5.692c-.692 0-1.259-.577-1.259-1.346 0-.77.567-1.346 1.26-1.346.692 0 1.258.641 1.258 1.346 0 .77-.566 1.346-1.259 1.346zm5.414 0c-.693 0-1.26-.577-1.26-1.346 0-.77.567-1.346 1.26-1.346.692 0 1.259.641 1.259 1.346 0 .77-.567 1.346-1.26 1.346zm4.154 5.513c.252.385.126.898-.378 1.09-.125.064-.251.128-.377.128a.69.69 0 01-.63-.385l-.63-1.09C11.539 12.296 9.776 13 7.888 13s-3.65-.77-4.973-2.051l-.566 1.09a.69.69 0 01-.63.384c-.126 0-.252-.064-.377-.128-.315-.192-.441-.705-.252-1.09l1.573-2.82c.252-.32.693-.45 1.07-.257.315.193.441.705.252 1.09l-.189.32c1.133 1.154 2.644 1.86 4.218 1.86 1.574 0 3.084-.642 4.154-1.86l-.188-.32c-.252-.385-.126-.897.251-1.09.378-.256.882-.128 1.07.257l1.574 2.82z"/></symbol><symbol id="twitter" viewBox="0 0 16 16"><path fill-rule="evenodd" d="M11.275 3c-1.46 0-2.702 1.172-2.702 2.552 0 .207 0 .414.073.551C6.382 5.966 4.41 5 3.096 3.413c-.22.346-.366.828-.366 1.311 0 .897.439 1.655 1.169 2.138a2.57 2.57 0 01-1.242-.345c0 1.242.95 2.276 2.118 2.483-.219.069-.438.069-.73.069-.146 0-.365 0-.511-.069.365 1.034 1.314 1.724 2.483 1.793-.95.69-2.045 1.104-3.36 1.104-.219 0-.438 0-.657-.07C3.169 12.588 4.63 13 6.09 13c4.966 0 7.595-3.931 7.595-7.31v-.345c.512-.345.95-.828 1.315-1.31a6.34 6.34 0 01-1.534.413c.585-.345.95-.827 1.169-1.448a6.939 6.939 0 01-1.68.62c-.219-.344-.876-.62-1.68-.62"/></symbol><symbol id="arrow_list_previous" viewBox="0 0 16 16"><path fill-rule="evenodd" clip-rule="evenodd" d="M10.707 13.207a1 1 0 01-1.414 0l-4.5-4.5a1 1 0 010-1.414l4.5-4.5a1 1 0 011.414 1.414L6.914 8l3.793 3.793a1 1 0 010 1.414z"/></symbol><symbol id="arrow_list_next" viewBox="0 0 16 16"><path fill-rule="evenodd" clip-rule="evenodd" d="M5.293 2.793a1 1 0 011.414 0l4.5 4.5a1 1 0 010 1.414l-4.5 4.5a1 1 0 01-1.414-1.414L9.086 8 5.293 4.207a1 1 0 010-1.414z"/></symbol><symbol id="logo_vk_blue_white" viewBox="0 0 20 20"><rect width="20" height="20" rx="4" fill="#07F"/><path d="M10.704 14.575c-4.558 0-7.158-3.125-7.267-8.325h2.284c.075 3.817 1.758 5.43 3.091 5.762V6.25h2.15v3.287c1.317-.141 2.7-1.637 3.167-3.287h2.15c-.358 2.033-1.858 3.533-2.925 4.15 1.067.5 2.775 1.808 3.425 4.175h-2.367c-.508-1.583-1.775-2.808-3.45-2.975v2.975h-.258z" fill="#fff"/></symbol><symbol id="calendar_mb" viewBox="0 0 18 18"><rect x="1" y="1" width="16" height="16" rx="2" fill="#fff"/><path fill-rule="evenodd" clip-rule="evenodd" d="M1 3a2 2 0 012-2h12a2 2 0 012 2v2H1V3z" fill="#FF9E00"/></symbol><symbol id="vk" viewBox="0 0 16 16"><path fill-rule="evenodd" clip-rule="evenodd" d="M1.125 1.125C0 2.249 0 4.06 0 7.68v.64c0 3.62 0 5.43 1.125 6.555C2.249 16 4.06 16 7.68 16h.64c3.62 0 5.43 0 6.555-1.125C16 13.751 16 11.94 16 8.32v-.64c0-3.62 0-5.43-1.125-6.555C13.751 0 11.94 0 8.32 0h-.64C4.06 0 2.25 0 1.125 1.125zM2.75 5c.087 4.16 2.167 6.66 5.813 6.66h.207V9.28c1.34.133 2.353 1.113 2.76 2.38h1.893c-.52-1.893-1.886-2.94-2.74-3.34.854-.493 2.054-1.693 2.34-3.32h-1.72c-.373 1.32-1.48 2.517-2.533 2.63V5H7.05v4.61C5.983 9.343 4.637 8.053 4.577 5H2.75z"/></symbol></defs></svg>